<svg width="96" height="332" viewBox="0 0 96 332" fill="none" xmlns="http://www.w3.org/2000/svg">
<path d="M0 18.7413C0 8.39318 8.35968 0 18.6665 0C28.9733 0 37.333 8.39318 37.333 18.7413C37.333 29.0894 28.9798 37.4826 18.6665 37.4826C8.35319 37.4826 0 29.0959 0 18.7413Z" fill="#F1F6F9"/>
<path d="M77.3335 37.4826C87.6427 37.4826 96 29.0918 96 18.7413C96 8.39077 87.6427 0 77.3335 0C67.0243 0 58.667 8.39077 58.667 18.7413C58.667 29.0918 67.0243 37.4826 77.3335 37.4826Z" fill="#F1F6F9"/>
<path d="M0 77.6434C0 67.2953 8.35968 58.9021 18.6665 58.9021C28.9733 58.9021 37.333 67.2953 37.333 77.6434C37.333 87.9915 28.9733 96.3847 18.6665 96.3847C8.35968 96.3847 0 87.998 0 77.6434Z" fill="#F1F6F9"/>
<path d="M77.3335 96.3847C87.6427 96.3847 96 87.9939 96 77.6434C96 67.2929 87.6427 58.9021 77.3335 58.9021C67.0243 58.9021 58.667 67.2929 58.667 77.6434C58.667 87.9939 67.0243 96.3847 77.3335 96.3847Z" fill="#F1F6F9"/>
<path d="M0 136.552C0 126.204 8.35968 117.811 18.6665 117.811C28.9733 117.811 37.333 126.204 37.333 136.552C37.333 146.9 28.9733 155.293 18.6665 155.293C8.35968 155.293 0 146.9 0 136.552Z" fill="#F1F6F9"/>
<path d="M77.3335 155.293C87.6427 155.293 96 146.903 96 136.552C96 126.202 87.6427 117.811 77.3335 117.811C67.0243 117.811 58.667 126.202 58.667 136.552C58.667 146.903 67.0243 155.293 77.3335 155.293Z" fill="#F1F6F9"/>
<path d="M0 195.454C0 185.106 8.35968 176.713 18.6665 176.713C28.9733 176.713 37.333 185.106 37.333 195.454C37.333 205.803 28.9733 214.196 18.6665 214.196C8.35968 214.196 0 205.803 0 195.454Z" fill="#F1F6F9"/>
<path d="M77.3335 214.196C87.6427 214.196 96 205.805 96 195.454C96 185.104 87.6427 176.713 77.3335 176.713C67.0243 176.713 58.667 185.104 58.667 195.454C58.667 205.805 67.0243 214.196 77.3335 214.196Z" fill="#F1F6F9"/>
<path d="M0 254.357C0 244.008 8.35968 235.615 18.6665 235.615C28.9733 235.615 37.333 244.008 37.333 254.357C37.333 264.705 28.9733 273.098 18.6665 273.098C8.35968 273.098 0 264.705 0 254.357Z" fill="#F1F6F9"/>
<path d="M77.3335 273.098C87.6427 273.098 96 264.707 96 254.357C96 244.006 87.6427 235.615 77.3335 235.615C67.0243 235.615 58.667 244.006 58.667 254.357C58.667 264.707 67.0243 273.098 77.3335 273.098Z" fill="#F1F6F9"/>
<path d="M0 313.259C0 302.911 8.35968 294.517 18.6665 294.517C28.9733 294.517 37.333 302.911 37.333 313.259C37.333 323.607 28.9733 332 18.6665 332C8.35968 332 0 323.613 0 313.259Z" fill="#F1F6F9"/>
<path d="M77.3335 332C87.6427 332 96 323.609 96 313.259C96 302.908 87.6427 294.517 77.3335 294.517C67.0243 294.517 58.667 302.908 58.667 313.259C58.667 323.609 67.0243 332 77.3335 332Z" fill="#F1F6F9"/>
</svg>
